<?xml version="1.0" standalone="no"?>
<!DOCTYPE svg PUBLIC "-//W3C//DTD SVG 20010904//EN"
 "http://www.w3.org/TR/2001/REC-SVG-20010904/DTD/svg10.dtd">
<svg version="1.0" xmlns="http://www.w3.org/2000/svg"
 width="1000.000000pt" height="256.000000pt" viewBox="0 0 1000.000000 256.000000"
 preserveAspectRatio="xMidYMid meet">
<metadata>
Created by potrace 1.16, written by Peter Selinger 2001-2019
</metadata>
<g transform="translate(0.000000,256.000000) scale(0.100000,-0.100000)"
fill="#000000" stroke="none">
<path d="M5608 2108 c-55 -12 -62 -30 -18 -48 l30 -12 0 -279 0 -279 -30 -6
c-16 -4 -30 -13 -30 -20 0 -11 23 -14 105 -14 82 0 105 3 105 14 0 7 -13 16
-30 20 l-30 6 0 154 0 155 30 16 c33 17 92 20 120 5 30 -16 40 -66 40 -194 0
-129 -5 -146 -47 -146 -14 0 -23 -6 -23 -15 0 -12 19 -15 110 -15 116 0 136 9
75 34 l-35 15 0 146 c0 164 -11 205 -61 230 -46 24 -130 19 -173 -10 l-36 -24
0 139 0 140 -27 -1 c-16 -1 -49 -6 -75 -11z"/>
<path d="M420 2066 c0 -21 6 -25 63 -35 36 -6 67 -18 75 -28 9 -13 12 -135 12
-529 0 -397 -3 -514 -12 -522 -7 -5 -41 -16 -75 -22 -56 -11 -63 -15 -63 -36
l0 -24 304 0 304 0 22 -61 c66 -176 214 -308 389 -349 86 -20 304 -7 418 24
51 14 108 32 128 40 l35 15 0 189 c0 217 -2 212 93 233 50 11 57 15 57 36 l0
23 -240 0 -240 0 0 -23 c0 -21 8 -25 72 -38 96 -19 98 -24 98 -207 l0 -143
-45 -20 c-25 -11 -82 -29 -127 -41 -147 -37 -259 -7 -352 92 -45 48 -97 143
-112 203 l-6 27 61 0 61 0 0 176 0 175 -27 -3 c-26 -3 -30 -9 -60 -118 -18
-63 -36 -122 -39 -130 -13 -31 -23 26 -23 137 -2 302 104 492 299 534 108 23
360 -37 402 -96 4 -5 19 -45 34 -87 24 -74 27 -78 55 -78 l29 0 0 144 0 143
-72 21 c-107 31 -188 42 -323 42 -138 0 -208 -15 -299 -63 -90 -46 -194 -155
-239 -247 -57 -117 -71 -185 -72 -343 l0 -137 -132 0 -133 0 0 521 c0 323 4
527 10 539 7 13 30 22 80 30 64 11 70 14 70 36 l0 24 -240 0 -240 0 0 -24z"/>
<path d="M4520 2050 c-54 -25 -115 -82 -140 -130 -48 -94 -49 -226 0 -327 29
-64 72 -106 135 -134 67 -31 221 -25 318 13 27 10 27 11 27 109 l0 98 35 7
c20 3 35 12 35 20 0 11 -24 14 -120 14 -100 0 -120 -2 -120 -15 0 -8 9 -15 21
-15 49 0 59 -16 59 -95 0 -84 -2 -87 -88 -106 -96 -20 -167 22 -214 126 -18
41 -22 68 -23 150 0 90 3 106 28 157 43 88 101 115 202 97 83 -15 110 -31 129
-79 26 -66 46 -53 46 30 0 68 -1 71 -27 82 -16 6 -80 13 -143 15 -101 3 -121
1 -160 -17z"/>
<path d="M2270 2046 c0 -8 15 -17 35 -20 l35 -7 0 -264 0 -264 -35 -7 c-20 -3
-35 -12 -35 -20 0 -12 40 -14 230 -14 l230 0 0 90 c0 71 -3 90 -14 90 -9 0
-21 -22 -31 -57 -9 -32 -18 -64 -20 -70 -3 -10 -36 -13 -120 -13 l-115 0 2
263 3 262 38 9 c20 5 37 15 37 23 0 10 -27 13 -120 13 -96 0 -120 -3 -120 -14z"/>
<path d="M2965 1873 c-48 -25 -66 -45 -91 -98 -42 -88 -29 -206 28 -271 45
-51 77 -64 155 -64 87 0 135 26 178 94 27 45 30 58 30 130 0 63 -5 90 -22 121
-25 48 -58 80 -96 94 -42 16 -147 13 -182 -6z m154 -47 c71 -64 78 -244 12
-318 -29 -33 -79 -40 -120 -19 -32 17 -61 84 -68 154 -14 162 84 265 176 183z"/>
<path d="M3443 1877 c-61 -11 -67 -27 -20 -48 l32 -14 5 -150 c4 -106 9 -156
19 -171 25 -37 65 -54 129 -54 50 0 66 4 91 26 l31 26 0 -26 c0 -30 9 -32 93
-15 63 13 74 31 27 48 l-30 10 0 192 0 192 -42 -7 c-69 -11 -118 -26 -118 -36
0 -5 16 -16 35 -24 l35 -15 0 -140 0 -140 -30 -16 c-33 -17 -92 -20 -120 -5
-30 16 -40 74 -40 233 0 168 9 155 -97 134z"/>
<path d="M5175 1874 c-80 -41 -119 -120 -113 -228 5 -85 28 -137 76 -174 30
-23 47 -27 111 -30 67 -2 82 1 126 25 33 19 51 35 53 51 4 27 -3 27 -53 2 -47
-24 -115 -26 -156 -4 -36 18 -68 83 -69 137 l0 37 140 0 140 0 0 40 c0 54 -31
113 -73 139 -42 26 -137 29 -182 5z m110 -24 c28 -11 55 -62 55 -105 0 -25 0
-25 -95 -25 -106 0 -106 0 -75 68 16 36 50 64 87 72 1 0 13 -4 28 -10z"/>
<path d="M6928 1098 c-55 -12 -62 -30 -18 -48 l30 -12 0 -279 0 -280 -30 -6
c-16 -3 -30 -12 -30 -19 0 -11 23 -14 105 -14 82 0 105 3 105 14 0 7 -13 16
-30 20 l-30 6 0 74 c0 60 3 77 17 84 14 8 28 -5 80 -74 35 -46 63 -86 63 -89
0 -3 -9 -5 -20 -5 -11 0 -20 -7 -20 -15 0 -12 18 -15 100 -15 78 0 100 3 100
14 0 7 -12 16 -27 19 -21 4 -49 34 -112 118 l-84 112 66 64 c40 39 77 65 96
69 17 4 31 13 31 20 0 11 -20 14 -90 14 -73 0 -90 -3 -90 -15 0 -8 9 -15 20
-15 11 0 20 -3 20 -8 0 -4 -34 -41 -75 -82 l-75 -74 0 217 0 217 -27 -1 c-16
-1 -49 -6 -75 -11z"/>
<path d="M2410 1049 c-32 -13 -78 -56 -96 -91 -17 -32 -18 -111 -3 -141 26
-49 64 -78 134 -99 139 -41 184 -82 171 -154 -10 -52 -56 -84 -119 -84 -79 1
-137 34 -164 93 -41 86 -63 54 -47 -66 6 -45 6 -45 63 -61 83 -23 194 -21 248
5 64 31 96 78 101 148 7 101 -37 149 -171 190 -118 36 -147 63 -147 137 0 53
38 84 104 84 73 0 116 -25 135 -77 10 -29 21 -43 33 -43 16 0 18 10 18 74 l0
74 -50 11 c-62 13 -176 13 -210 0z"/>
<path d="M8038 993 c-23 -4 -28 -9 -28 -33 0 -48 -18 -80 -50 -91 -42 -15 -39
-39 5 -39 l35 0 0 -175 c0 -173 0 -176 25 -200 20 -21 34 -25 79 -25 65 0 126
25 126 52 0 15 -5 17 -27 11 -44 -12 -82 -7 -103 12 -18 17 -20 31 -20 171 l0
153 72 3 c60 2 73 6 76 21 3 15 -6 17 -72 17 l-76 0 0 65 c0 36 -3 64 -7 64
-5 -1 -20 -4 -35 -6z"/>
<path d="M2883 867 c-61 -11 -67 -27 -20 -48 l32 -14 5 -150 c4 -106 9 -156
19 -171 25 -37 65 -54 129 -54 50 0 66 4 91 26 l31 26 0 -26 c0 -30 9 -32 93
-15 63 13 74 31 27 48 l-30 10 0 192 0 192 -42 -7 c-69 -11 -118 -26 -118 -36
0 -5 16 -16 35 -24 l35 -15 0 -140 0 -140 -30 -16 c-33 -17 -92 -20 -120 -5
-30 16 -40 74 -40 233 0 168 9 155 -97 134z"/>
<path d="M3488 867 c-56 -12 -61 -28 -15 -48 l32 -14 0 -270 0 -270 -32 -10
c-18 -5 -33 -15 -33 -22 0 -10 28 -13 115 -13 96 0 115 3 115 15 0 8 -9 15
-21 15 -11 0 -29 5 -40 10 -17 10 -19 22 -19 111 l0 100 22 -15 c14 -10 44
-16 82 -16 81 0 132 30 171 102 26 46 30 63 30 133 0 138 -57 205 -172 205
-48 0 -68 -5 -97 -25 l-36 -24 0 24 c0 28 -18 30 -102 12z m272 -75 c15 -16
33 -46 39 -68 43 -154 -52 -281 -172 -230 l-37 15 0 133 c0 73 4 138 8 144 14
21 47 33 90 34 35 0 49 -6 72 -28z"/>
<path d="M4155 864 c-80 -41 -119 -120 -113 -228 5 -85 28 -137 76 -174 30
-23 47 -27 111 -30 67 -2 82 1 126 25 33 19 51 35 53 51 4 27 -3 27 -53 2 -47
-24 -115 -26 -156 -4 -36 18 -68 83 -69 137 l0 37 140 0 140 0 0 40 c0 54 -31
113 -73 139 -42 26 -137 29 -182 5z m110 -24 c28 -11 55 -62 55 -105 0 -25 0
-25 -95 -25 -106 0 -106 0 -75 68 16 36 50 64 87 72 1 0 13 -4 28 -10z"/>
<path d="M4596 867 c-61 -15 -67 -29 -21 -46 l35 -12 0 -164 0 -164 -32 -9
c-17 -4 -33 -13 -36 -20 -3 -9 26 -12 112 -12 96 0 116 3 116 15 0 8 -9 15
-19 15 -50 0 -51 4 -51 150 l0 138 31 26 c41 35 92 35 115 1 29 -45 45 -32 42
33 l-3 57 -58 3 c-56 3 -60 2 -98 -36 l-39 -40 0 39 c0 44 -7 46 -94 26z"/>
<path d="M5068 867 c-55 -12 -63 -33 -18 -48 l30 -11 0 -164 0 -165 -30 -6
c-16 -3 -30 -12 -30 -19 0 -11 23 -14 105 -14 82 0 105 3 105 14 0 7 -13 16
-30 19 l-30 6 0 155 0 154 26 16 c37 25 101 23 128 -3 19 -20 21 -34 24 -171
l3 -149 -32 -8 c-18 -5 -34 -14 -37 -21 -3 -9 25 -12 107 -12 88 0 111 3 111
14 0 7 -13 16 -30 19 l-30 6 0 156 c0 152 0 155 24 170 37 24 103 22 130 -4
19 -20 21 -34 24 -171 l3 -149 -32 -8 c-18 -5 -34 -14 -37 -21 -3 -9 25 -12
107 -12 117 0 137 9 76 34 l-35 15 0 151 c0 168 -8 198 -60 225 -47 24 -129
20 -173 -10 -20 -14 -37 -30 -37 -34 0 -5 -15 6 -34 25 -32 32 -38 34 -100 34
-59 0 -69 -3 -101 -31 l-35 -31 0 31 c0 35 -8 36 -92 18z"/>
<path d="M5956 863 c-36 -15 -38 -18 -32 -51 3 -19 8 -37 11 -40 3 -4 32 8 64
26 58 32 103 40 130 23 9 -6 16 -32 19 -70 l4 -61 -63 0 c-73 0 -130 -22 -169
-64 -20 -23 -25 -38 -25 -83 0 -49 3 -58 33 -84 28 -25 40 -29 90 -29 44 0 66
6 92 24 l35 23 10 -21 c14 -27 81 -34 124 -11 43 22 40 43 -6 47 l-38 3 -5
151 c-6 168 -15 194 -75 220 -45 19 -150 17 -199 -3z m194 -266 c0 -71 -13
-91 -70 -107 -62 -18 -112 31 -96 93 10 41 71 73 144 76 21 1 22 -3 22 -62z"/>
<path d="M6466 867 c-61 -15 -67 -29 -21 -46 l35 -12 0 -164 0 -164 -32 -9
c-17 -4 -33 -13 -36 -20 -3 -9 26 -12 112 -12 96 0 116 3 116 15 0 8 -9 15
-19 15 -50 0 -51 4 -51 150 l0 138 31 26 c41 35 92 35 115 1 29 -45 45 -32 42
33 l-3 57 -58 3 c-56 3 -60 2 -98 -36 l-39 -40 0 39 c0 44 -7 46 -94 26z"/>
<path d="M7555 864 c-80 -41 -119 -120 -113 -228 5 -85 28 -137 76 -174 30
-23 47 -27 111 -30 67 -2 82 1 126 25 33 19 51 35 53 51 4 27 -3 27 -53 2 -47
-24 -115 -26 -156 -4 -36 18 -68 83 -69 137 l0 37 140 0 140 0 0 40 c0 54 -31
113 -73 139 -42 26 -137 29 -182 5z m110 -24 c28 -11 55 -62 55 -105 0 -25 0
-25 -95 -25 -106 0 -106 0 -75 68 16 36 50 64 87 72 1 0 13 -4 28 -10z"/>
</g>
</svg>
